<svg id="Filled_expand" height="512" viewBox="0 0 512 512" width="512" xmlns="http://www.w3.org/2000/svg" data-name="Filled expand"><g id="_10_copy_2" data-name="10 copy 2"><g><g><path d="m403.238 343.28a40.96 40.96 0 0 1 40.96 40.96v20.48a0 0 0 0 1 0 0 40.96 40.96 0 0 1 -40.96-40.96v-20.48a0 0 0 0 1 0 0z" fill="#fcbf58" transform="matrix(.866 .5 -.5 .866 243.767 -161.752)"/><g fill="#ff993a"><path d="m307.431 286.42a64 64 0 0 0 -23.426-87.426l-16 27.713a64 64 0 0 0 23.426 87.426 64 64 0 0 0 87.425-23.426l16-27.713a64 64 0 0 0 -87.425 23.426z"/><path d="m434.856 193.712a64 64 0 0 0 -87.425 23.426 64 64 0 0 0 -23.426-87.426l-16 27.713a64 64 0 0 0 23.426 87.426 64 64 0 0 0 87.425-23.426z"/><path d="m474.856 124.43a64 64 0 0 0 -87.425 23.426 64 64 0 0 0 -23.426-87.426l-16 27.713a64 64 0 0 0 23.426 87.426 64 64 0 0 0 87.425-23.426z"/><path d="m335.144 309.846a0 0 0 0 1 0 0v32a64 64 0 0 1 -64 64 0 0 0 0 1 0 0v-32a64 64 0 0 1 64-64z" transform="matrix(-.866 -.5 .5 -.866 386.751 819.321)"/></g><path d="m251.431 391.415a7.988 7.988 0 0 1 -4-1.072 72.083 72.083 0 0 1 -26.355-98.354l16-27.713a8 8 0 0 1 10.928-2.928 72.082 72.082 0 0 1 26.355 98.352l-16 27.713a7.994 7.994 0 0 1 -6.927 4zm-4.783-111.715-11.714 20.291a56.088 56.088 0 0 0 13.853 72l11.713-20.291a56.086 56.086 0 0 0 -13.852-72z"/><path d="m426.086 418.845a7.956 7.956 0 0 1 -3.992-1.073 48.96 48.96 0 0 1 -17.921-66.88l10.241-17.737a8 8 0 0 1 10.928-2.928 48.865 48.865 0 0 1 22.1 27.309l-15.222 4.928a32.877 32.877 0 0 0 -8.437-13.53l-5.75 9.958a33 33 0 0 0 5.622 40.182l5.755-9.967a32.657 32.657 0 0 0 4.313-13.761l15.947 1.308a48.545 48.545 0 0 1 -6.4 20.454l-10.241 17.736a8 8 0 0 1 -6.943 4.001z"/><path d="m83.2 324.29a0 0 0 0 1 0 0v20.472a40.957 40.957 0 0 1 -40.957 40.957 0 0 0 0 1 0 0v-20.472a40.957 40.957 0 0 1 40.957-40.957z" fill="#ff993a" transform="matrix(-.248 .969 -.969 -.248 422.189 382.382)"/><path d="m87.388 390.471a8.006 8.006 0 0 1 -1.982-.25l-19.833-5.085a49.014 49.014 0 0 1 -35.265-59.578 8.007 8.007 0 0 1 9.739-5.771l19.834 5.086a49.012 49.012 0 0 1 35.264 59.578 8.006 8.006 0 0 1 -7.757 6.02zm-42.626-52.957a33.028 33.028 0 0 0 24.785 32.123l11.146 2.863a33.026 33.026 0 0 0 -24.787-32.123z"/><path d="m427.431 56.718h16v15.999h-16z" transform="matrix(.5 -.866 .866 .5 161.658 409.445)"/></g><g><g fill="#fcbf58"><path d="m286 297.723-16-27.713a64 64 0 0 0 -23.426 87.426 64 64 0 0 0 -87.425-23.426l16 27.713a64 64 0 0 0 87.425 23.426 64 64 0 0 0 23.426-87.426z"/><path d="m246 228.441-16-27.713a64 64 0 0 0 -23.426 87.426 64 64 0 0 0 -87.425-23.426l16 27.713a64 64 0 0 0 87.425 23.426 64 64 0 0 0 23.426-87.426z"/><path d="m208 159.877-16-27.713a64 64 0 0 0 -23.426 87.426 64 64 0 0 0 -87.425-23.426l16 27.713a64 64 0 0 0 87.42 23.423 64 64 0 0 0 23.431-87.423z"/><path d="m166 89.877-16-27.713a64 64 0 0 0 -23.426 87.426 64 64 0 0 0 -87.425-23.426l16 27.713a64 64 0 0 0 87.42 23.423 64 64 0 0 0 23.431-87.423z"/></g><path d="m70.57 58.451h15.999v16h-15.999z" transform="matrix(.866 -.5 .5 .866 -22.699 48.187)"/></g><path d="m276.426 377.149-27.713 16 54.052 94.851h36.83z" fill="#e0a23a"/><path d="m478.856 117.5a73.158 73.158 0 0 0 -7.147-3.622l24.219-41.947-13.856-8-26.039 45.1a71.746 71.746 0 0 0 -31.811 1.275 73.4 73.4 0 0 0 -7.23 2.344l13.366-23.15-13.855-8-13.4 23.2a72.293 72.293 0 0 0 -16.373-35.643l26.056-45.13-13.855-8-24.218 41.958a72.712 72.712 0 0 0 -6.708-4.383 8 8 0 0 0 -10.928 2.928l-16 27.713a71.588 71.588 0 0 0 -9.458 40.87q-1.762-1.16-3.613-2.229a8 8 0 0 0 -10.928 2.928l-16 27.713a71.585 71.585 0 0 0 -9.458 40.869q-1.767-1.161-3.613-2.228a8 8 0 0 0 -10.93 2.934l-16 27.713a72.156 72.156 0 0 0 -4.436 9.1 73.334 73.334 0 0 0 -3.718-7.367l-16-27.712a8 8 0 0 0 -10.923-2.934q-1.846 1.066-3.613 2.228a71.594 71.594 0 0 0 -9.459-40.869l-16-27.713a8 8 0 0 0 -10.928-2.928q-1.846 1.066-3.613 2.227a71.592 71.592 0 0 0 -9.459-40.868l-16-27.713a8 8 0 0 0 -10.928-2.928 72.506 72.506 0 0 0 -6.708 4.383l-24.226-41.952-13.855 8 26.056 45.133a72.292 72.292 0 0 0 -16.373 35.644l-13.4-23.2-13.855 8 13.366 23.151a73.4 73.4 0 0 0 -7.23-2.344 71.716 71.716 0 0 0 -31.811-1.275l-26.039-45.1-13.856 8 24.219 41.947a73.158 73.158 0 0 0 -7.147 3.622 8 8 0 0 0 -2.928 10.928l5.687 9.827 13.855-8-1.4-2.42a56.024 56.024 0 0 1 69.287 24.01l11.715 20.291a56.088 56.088 0 0 1 -69.284-24l-13.857 8a71.593 71.593 0 0 0 30.662 28.619q-1.887.95-3.734 2.015a8 8 0 0 0 -2.928 10.928l16 27.713a71.5 71.5 0 0 0 30.614 28.651q-1.863.939-3.685 1.99a8 8 0 0 0 -2.928 10.928l16 27.713a71.5 71.5 0 0 0 30.614 28.651q-1.863.939-3.685 1.99a8 8 0 0 0 -2.928 10.928l16 27.713a72.163 72.163 0 0 0 75.491 34.8l52.108 91.442a8 8 0 0 0 6.948 4.038h36.835a8 8 0 0 0 6.95-11.961l-22.8-40-13.9 7.922 15.979 28.039h-18.416l-47.813-83.9 6.95-4.013.016-.01.023-.013 6.866-3.964 27.274 47.861 13.9-7.922-16.812-29.5a72.112 72.112 0 0 0 47.963-34.547l16-27.713a8 8 0 0 0 -2.928-10.928q-1.845-1.065-3.74-2.013a71.6 71.6 0 0 0 30.669-28.627l16-27.714a8 8 0 0 0 -2.929-10.928q-1.822-1.053-3.689-1.992a71.583 71.583 0 0 0 28.537-25.258l-13.4-8.743a55.984 55.984 0 0 1 -67.657 21.355l11.716-20.293a56.024 56.024 0 0 1 69.287-24.01l-3.966 6.872 13.855 8 8.249-14.288a8 8 0 0 0 -2.928-10.928q-1.846-1.066-3.736-2.016a71.582 71.582 0 0 0 30.664-28.625l16-27.713a8 8 0 0 0 -2.928-10.93zm-203.923 113.208 11.718-20.3a56.023 56.023 0 0 1 13.849 72.012l-7.058 12.225c-.172-.308-.345-.615-.522-.922l-16-27.713a8 8 0 0 0 -9.375-3.618 55.888 55.888 0 0 1 7.388-31.684zm-47.584-18.563 11.717 20.3a56.025 56.025 0 0 1 -13.85 72.01l-11.718-20.3a56.021 56.021 0 0 1 13.851-72.009zm2.735 116.688a71.215 71.215 0 0 0 -7.2-4.047q1.864-.939 3.686-1.991 1.847-1.067 3.614-2.227a71.853 71.853 0 0 0 -.1 8.265zm-42.735-185.971 11.717 20.3a56.087 56.087 0 0 1 -13.853 72l-11.713-20.29a56.023 56.023 0 0 1 13.851-72.01zm2.689 116.659a71.587 71.587 0 0 0 -7.155-4.018q1.864-.937 3.686-1.99t3.567-2.2a71.614 71.614 0 0 0 -.098 8.208zm-42.686-185.936 11.714 20.292a56.088 56.088 0 0 1 -13.853 72l-11.713-20.287a56.088 56.088 0 0 1 13.852-72.005zm2.686 116.654a71.4 71.4 0 0 0 -7.156-4.018q1.86-.936 3.687-1.99t3.567-2.2a71.614 71.614 0 0 0 -.098 8.208zm-47.966 28.92-11.718-20.3a56.024 56.024 0 0 1 69.287 24.01l11.715 20.291a56.085 56.085 0 0 1 -69.284-24.001zm40 69.282-11.718-20.3a56.024 56.024 0 0 1 69.287 24.01l11.718 20.3a56.024 56.024 0 0 1 -69.287-24.01zm40 69.282-11.718-20.3a56.024 56.024 0 0 1 69.287 24.01l11.715 20.292a56.088 56.088 0 0 1 -69.284-24.002zm83.141 16-11.713-20.287a56.086 56.086 0 0 1 13.854-72l11.714 20.291a56.064 56.064 0 0 1 4.644 10.318 7.992 7.992 0 0 0 1.954 7.636 56.172 56.172 0 0 1 -20.453 54.046zm66.715-17.738a56.107 56.107 0 0 1 -42.574 27.69l-4.072-7.146a72.36 72.36 0 0 0 17.018-40.921 56.31 56.31 0 0 1 41.334.1zm16.434-91.661a55.572 55.572 0 0 1 35.284 2.083l-11.718 20.3a56.089 56.089 0 0 1 -69.284 24l11.715-20.291a55.636 55.636 0 0 1 34.003-26.088zm-24.5-14.747q1.74 1.143 3.567 2.2t3.687 1.99a71.293 71.293 0 0 0 -7.156 4.018 71.594 71.594 0 0 0 -.096-8.204zm16.638-36.439-11.715 20.291a56.087 56.087 0 0 1 -13.853-72l11.714-20.291a56.087 56.087 0 0 1 13.854 72zm23.414-24.6a72.115 72.115 0 0 0 -.1-8.267q1.763 1.16 3.613 2.229 1.826 1.054 3.687 1.99a71.238 71.238 0 0 0 -7.198 4.045zm4.871-24.388a56.088 56.088 0 0 1 -13.853-72l11.714-20.291a56.086 56.086 0 0 1 13.854 72zm83.141-16a56.088 56.088 0 0 1 -69.284 24l11.715-20.291a56.024 56.024 0 0 1 69.287-24.01z"/></g></g></svg>