<?xml version="1.0" standalone="no"?>
<!DOCTYPE svg PUBLIC "-//W3C//DTD SVG 20010904//EN"
 "http://www.w3.org/TR/2001/REC-SVG-20010904/DTD/svg10.dtd">
<svg version="1.0" xmlns="http://www.w3.org/2000/svg"
 width="780.000000pt" height="569.000000pt" viewBox="0 0 780.000000 569.000000"
 preserveAspectRatio="xMidYMid meet">
<metadata>
Created by potrace 1.16, written by Peter Selinger 2001-2019
</metadata>
<g transform="translate(0.000000,569.000000) scale(0.100000,-0.100000)"
fill="#000000" stroke="none">
<path d="M5525 5274 c-74 -19 -149 -50 -205 -84 -43 -26 -77 -40 -100 -40 -19
0 -66 -12 -105 -25 -69 -25 -71 -25 -144 -9 -124 28 -255 8 -381 -56 -25 -13
-80 -58 -124 -101 -58 -58 -85 -79 -105 -79 -47 0 -150 -29 -209 -59 -69 -35
-132 -86 -181 -146 l-36 -45 -378 0 c-418 0 -430 -2 -467 -62 -41 -67 -16
-168 50 -200 31 -16 71 -18 371 -18 l336 0 6 -68 c5 -59 24 -131 52 -194 7
-17 -27 -18 -637 -18 -608 0 -645 -1 -678 -19 -69 -36 -88 -142 -38 -206 44
-57 17 -55 923 -55 l835 0 0 -100 c0 -99 0 -100 -22 -96 -66 14 -215 27 -312
28 -135 0 -193 -17 -251 -73 l-41 -39 -403 0 c-446 0 -455 -1 -488 -64 -23
-44 -22 -119 3 -154 47 -63 37 -62 603 -62 l513 0 20 25 c43 55 102 67 261 53
l117 -11 0 -923 0 -923 -242 189 -243 190 -789 0 c-772 0 -789 0 -821 -20 -81
-50 -76 -192 8 -237 29 -17 88 -18 757 -23 l726 -5 198 -155 199 -155 -756 -5
-757 -5 -31 -32 c-61 -60 -47 -182 25 -221 28 -16 107 -17 926 -22 846 -5 897
-6 924 -23 57 -38 71 -138 29 -196 -11 -14 -35 -34 -54 -43 -31 -16 -80 -18
-579 -18 -413 0 -551 -3 -569 -13 -85 -43 -93 -174 -15 -236 l27 -21 1902 0
1902 0 34 23 c52 35 79 82 79 139 0 55 -16 90 -90 204 l-50 77 2 1379 3 1379
65 26 c312 124 470 463 364 780 -47 141 -169 283 -298 346 -35 17 -57 35 -61
49 -4 13 -27 55 -51 95 -96 155 -252 250 -440 268 -119 11 -280 -35 -380 -110
-25 -19 -39 -22 -80 -18 -43 5 -55 11 -101 59 -66 67 -154 126 -236 154 -47
17 -90 23 -177 26 -63 1 -124 1 -135 -2z m266 -241 c50 -22 117 -78 151 -125
l20 -30 -30 -31 c-30 -32 -72 -106 -72 -128 0 -6 17 4 37 21 65 57 117 75 218
75 75 0 98 -4 139 -24 50 -25 108 -76 138 -121 l17 -25 -5 35 c-3 19 -19 62
-35 94 l-29 59 20 22 c12 12 42 34 68 48 157 84 353 38 451 -107 47 -69 46
-71 -22 -104 -54 -27 -188 -144 -147 -129 83 31 129 39 210 35 73 -3 98 -9
153 -36 157 -78 249 -254 218 -420 -33 -179 -177 -316 -345 -329 l-63 -5 0 58
c0 33 -6 77 -13 99 l-13 40 -13 -63 c-32 -156 -154 -256 -316 -256 l-77 -1 -3
-237 -3 -238 -28 -27 c-23 -24 -36 -28 -83 -28 -50 0 -58 3 -85 33 l-29 32 0
283 0 283 -90 -4 c-82 -4 -95 -2 -144 22 -70 34 -145 116 -170 184 -27 77 -24
168 8 238 l26 56 -20 28 c-11 15 -20 33 -20 38 0 6 -27 2 -61 -9 -33 -10 -82
-19 -109 -19 -59 0 -157 29 -200 60 -28 20 -36 21 -70 11 -52 -15 -140 -14
-190 4 -40 14 -43 14 -61 -8 -10 -12 -18 -25 -19 -29 -1 -18 -126 -88 -178
-99 -54 -11 -133 -4 -183 15 -12 5 -19 -6 -33 -51 -25 -79 -117 -172 -196
-198 -166 -56 -334 15 -412 174 -18 37 -23 63 -23 131 0 73 4 93 28 141 52
107 155 177 274 187 l63 5 0 -30 c0 -40 52 -142 91 -178 24 -22 30 -25 25 -11
-81 227 55 450 282 463 79 4 170 -22 163 -47 -18 -66 -23 -112 -16 -155 l8
-50 12 50 c21 91 63 150 137 191 47 26 63 29 138 29 112 0 163 -25 228 -110
l22 -30 -6 30 c-11 48 -41 101 -79 138 l-35 34 26 18 c15 10 50 26 78 37 69
25 211 21 277 -9z m-375 -889 c21 -9 66 -22 99 -28 l60 -13 6 -69 c12 -126 82
-262 177 -344 47 -40 192 -120 218 -120 11 0 14 -30 14 -155 0 -222 20 -296
104 -383 63 -66 126 -95 221 -100 105 -5 178 21 251 90 83 78 98 123 102 304
l4 152 46 18 c26 11 50 21 54 22 5 2 8 -556 8 -1240 0 -1373 3 -1303 -63
-1389 -17 -23 -57 -56 -87 -73 l-55 -31 -869 -3 c-967 -3 -934 -5 -1014 64
-24 20 -55 59 -70 88 l-27 51 -3 1416 -2 1415 40 18 c60 26 155 100 192 149
32 43 35 45 113 56 82 11 196 58 245 99 21 18 38 21 111 22 58 0 99 -5 125
-16z"/>
<path d="M854 3494 c-42 -20 -68 -69 -68 -125 0 -52 20 -89 61 -116 25 -17 83
-18 844 -21 640 -2 824 0 855 10 52 17 84 66 84 127 0 58 -16 89 -59 118 l-34
23 -826 0 c-715 0 -830 -2 -857 -16z"/>
<path d="M1643 2930 c-86 -52 -83 -196 4 -241 24 -12 176 -14 946 -17 l917 -2
0 -23 c0 -12 -7 -69 -15 -127 -8 -58 -15 -111 -15 -117 0 -10 -335 -13 -1640
-13 -1784 0 -1676 3 -1714 -54 -42 -64 -25 -155 37 -200 l28 -21 1774 -3 1774
-2 6 32 c3 18 26 195 50 393 25 198 47 372 50 388 l5 27 -1088 0 c-1060 0
-1088 -1 -1119 -20z"/>
<path d="M1029 1807 c-69 -46 -77 -151 -15 -213 44 -44 69 -46 531 -42 313 2
396 6 418 17 84 43 90 178 11 240 -26 21 -36 21 -469 21 l-442 0 -34 -23z"/>
</g>
</svg>
